<?xml version="1.0" encoding="UTF-8"?>
<svg xmlns="http://www.w3.org/2000/svg" viewBox="0 0 1024 1024" width="1024" height="1024">
    <defs>
        <linearGradient id="grad" x1="0%" y1="0%" y2="100%" x2="100%">
            <stop offset="0%" stop-color="#5b6b7a" />
            <stop offset="50%" stop-color="#8b9aaa" />
            <stop offset="100%" stop-color="#c5ced6" />
        </linearGradient>
        <linearGradient id="gradDark" x1="0%" y1="0%" x2="100%" y2="100%">
            <stop offset="0%" stop-color="#3d4a56" />
            <stop offset="50%" stop-color="#5b6b7a" />
            <stop offset="100%" stop-color="#7a8794" />
        </linearGradient>
        <linearGradient id="gradLight" x1="0%" y1="0%" x2="100%" y2="100%">
            <stop offset="0%" stop-color="#8b9aaa" />
            <stop offset="50%" stop-color="#c5ced6" />
            <stop offset="100%" stop-color="#e8eef2" />
        </linearGradient>
    </defs>
    <rect x="100" y="100" width="824" height="824" rx="185.4" ry="185.4" fill="#2a2a2a" />
    <g transform="translate(512 512) scale(0.858333)">
        <path d="M 0 -200 L -70 -70 L -200 0 L -70 70 L 0 200 L 70 70 L 200 0 L 70 -70 Z" fill="url(#gradDark)" />
        <path d="M 0 -200 L 70 -70 L 0 0 Z M 200 0 L 70 70 L 0 0 Z M 0 200 L -70 70 L 0 0 Z M -200 0 L -70 -70 L 0 0 Z"
            fill="url(#gradLight)" />
    </g>
    <circle cx="512" cy="512" r="274.667" fill="none" stroke="url(#grad)" stroke-width="171.667"
        stroke-linecap="round" />
    <g transform="translate(710 886)">
        <rect x="-225" y="-207" width="500" height="228" rx="50" fill="rgba(0,0,0,0.6)" stroke="#00ffd0"
            stroke-width="30" />
        <text x="10" y="-10" text-anchor="middle"
            font-family="Arial Rounded MT Bold, Avenir Next Rounded, Hiragino Maru Gothic ProN, Avenir Next, sans-serif"
            font-size="235" font-weight="700" letter-spacing="-16" fill="#00ffd0">DEV</text>
    </g>
</svg>